<svg xmlns="http://www.w3.org/2000/svg" width="15" height="15" viewBox="0 0 15 15"><defs><style>.a{fill:none;}.b{fill:#898989;}</style></defs><path class="a" d="M0,0H15V15H0Z"/><path class="b" d="M8.223,2a6.223,6.223,0,1,0,6.223,6.223A6.225,6.225,0,0,0,8.223,2Zm0,11.2A4.978,4.978,0,1,1,13.2,8.223,4.985,4.985,0,0,1,8.223,13.2Zm2.414-7.287L6.978,9.573,5.808,8.4a.62.62,0,0,0-.877.877l1.612,1.612a.62.62,0,0,0,.877,0l4.1-4.1a.62.62,0,0,0,0-.877.627.627,0,0,0-.884,0Z" transform="translate(-0.723 -0.723)"/></svg>